<svg width="1024" height="1024" viewBox="0 0 1024 1024" fill="none" xmlns="http://www.w3.org/2000/svg">
<path d="M350.051 231.119C354.714 231.124 359.376 231.111 364.039 231.101C373.146 231.084 382.253 231.083 391.36 231.088C398.769 231.092 406.179 231.091 413.589 231.085C414.648 231.085 415.707 231.084 416.798 231.083C418.95 231.081 421.102 231.08 423.254 231.078C443.385 231.065 463.516 231.07 483.647 231.082C502.018 231.091 520.388 231.079 538.759 231.055C557.677 231.03 576.596 231.021 595.514 231.027C606.113 231.031 616.712 231.029 627.311 231.011C636.333 230.996 645.355 230.996 654.376 231.013C658.969 231.022 663.561 231.024 668.153 231.008C686.9 230.95 705.048 231.145 723.402 235.526C724.369 235.754 725.335 235.983 726.331 236.218C755.667 243.247 780.471 256.885 802.402 277.526C802.991 278.062 803.58 278.598 804.187 279.151C821.929 295.928 833.864 318.707 840.714 341.901C840.945 342.665 841.175 343.428 841.412 344.216C846.381 362.109 846.84 380.19 846.79 398.634C846.794 401.197 846.799 403.76 846.806 406.324C846.818 412.515 846.816 418.706 846.808 424.898C846.801 429.94 846.8 434.983 846.803 440.026C846.804 440.749 846.804 441.471 846.805 442.216C846.805 443.685 846.806 445.154 846.807 446.624C846.816 460.347 846.806 474.069 846.79 487.792C846.777 499.51 846.779 511.228 846.793 522.945C846.809 536.618 846.815 550.29 846.806 563.962C846.805 565.427 846.804 566.892 846.803 568.356C846.803 569.077 846.802 569.797 846.802 570.539C846.799 575.56 846.803 580.581 846.811 585.602C846.82 592.393 846.813 599.183 846.796 605.974C846.792 608.445 846.793 610.916 846.8 613.388C846.907 657.038 838.741 697.823 807.339 730.088C790.795 746.463 770.007 757.302 747.402 762.526C746.729 762.683 746.057 762.84 745.365 763.001C733.978 765.535 722.613 765.952 710.971 766.06C702.685 766.019 702.685 766.019 695.402 769.526C693.413 772.253 693.413 772.253 691.902 775.401C687.446 783.476 682.284 787.755 673.402 790.526C668.811 791.089 664.265 791.087 659.644 791.057C658.341 791.061 657.039 791.065 655.697 791.068C652.955 791.074 650.214 791.066 647.472 791.047C643.974 791.024 640.477 791.037 636.979 791.061C633.617 791.079 630.256 791.067 626.894 791.057C625.646 791.065 624.398 791.073 623.112 791.081C616.385 791.009 611.683 790.894 606.402 786.526C601.026 779.822 601.855 772.23 601.919 764.05C601.917 762.473 601.913 760.895 601.907 759.317C601.899 755.928 601.903 752.54 601.916 749.151C601.936 743.782 601.926 738.415 601.912 733.046C601.883 720.676 601.893 708.306 601.904 695.936C601.914 684.609 601.915 673.281 601.884 661.953C601.871 656.627 601.877 651.301 601.898 645.974C601.907 642.647 601.899 639.319 601.887 635.992C601.885 634.46 601.89 632.928 601.902 631.397C602.016 616.284 598.613 603.816 588.441 592.307C577.586 581.815 564.072 577.229 549.288 577.219C548.19 577.211 547.091 577.203 545.959 577.194C542.336 577.17 538.713 577.161 535.089 577.155C532.557 577.146 530.024 577.136 527.492 577.127C522.183 577.111 516.874 577.103 511.564 577.1C505.464 577.096 499.364 577.067 493.264 577.025C487.361 576.986 481.457 576.975 475.553 576.973C473.059 576.969 470.565 576.957 468.071 576.936C449.677 576.793 435.259 577.593 420.402 589.526C419.515 590.124 418.628 590.722 417.714 591.338C407.504 600.996 402.969 614.101 402.219 627.878C402.145 631.695 402.134 635.508 402.146 639.325C402.144 640.782 402.14 642.238 402.135 643.695C402.127 646.809 402.125 649.924 402.127 653.038C402.13 657.969 402.116 662.899 402.098 667.83C402.051 681.842 402.027 695.854 402.021 709.867C402.017 717.623 401.999 725.378 401.966 733.134C401.946 738.03 401.943 742.926 401.954 747.822C401.957 750.871 401.943 753.919 401.924 756.968C401.919 758.376 401.92 759.783 401.929 761.191C401.982 770.26 401.467 776.511 395.613 783.733C395.007 784.262 394.401 784.792 393.777 785.338C392.891 786.152 392.891 786.152 391.988 786.983C382.984 792.355 372.985 791.961 362.836 791.93C361.177 791.935 359.519 791.942 357.86 791.95C353.381 791.968 348.901 791.967 344.422 791.961C340.672 791.958 336.922 791.965 333.173 791.971C324.322 791.985 315.471 791.983 306.62 791.972C297.511 791.96 288.402 791.974 279.293 792.001C271.45 792.023 263.608 792.03 255.766 792.024C251.091 792.021 246.417 792.023 241.742 792.04C237.345 792.056 232.948 792.052 228.551 792.033C226.945 792.029 225.338 792.032 223.732 792.043C210.268 792.124 199.474 790.145 189.402 780.526C181.678 772.233 178.282 762.137 178.27 750.928C178.267 749.949 178.267 749.949 178.264 748.95C178.258 746.76 178.26 744.57 178.261 742.38C178.259 740.795 178.256 739.211 178.252 737.626C178.244 733.267 178.242 728.908 178.242 724.55C178.24 719.849 178.232 715.149 178.225 710.448C178.212 700.164 178.206 689.881 178.201 679.597C178.199 673.169 178.194 666.741 178.19 660.313C178.178 642.502 178.167 624.691 178.164 606.879C178.164 605.739 178.164 604.599 178.163 603.424C178.163 602.281 178.163 601.138 178.163 599.96C178.162 597.645 178.162 595.329 178.161 593.013C178.161 591.864 178.161 590.715 178.161 589.532C178.157 570.952 178.139 552.373 178.116 533.794C178.092 514.698 178.08 495.603 178.079 476.508C178.078 465.795 178.072 455.082 178.054 444.37C178.038 435.239 178.033 426.108 178.042 416.977C178.046 412.327 178.045 407.676 178.031 403.025C177.901 357.717 177.901 357.717 184.214 337.588C184.473 336.729 184.731 335.869 184.998 334.984C190.598 316.794 198.404 300.369 210.402 285.526C210.812 285.008 211.222 284.491 211.645 283.958C216.749 277.532 221.948 271.625 228.402 266.526C229.345 265.757 230.289 264.989 231.261 264.198C266.355 236.035 306.476 231.043 350.051 231.119Z" fill="#28AFB4"/>
<path d="M589.402 252.526C603.241 252.479 617.081 252.444 630.921 252.422C637.348 252.412 643.776 252.397 650.203 252.375C656.415 252.353 662.626 252.341 668.838 252.336C671.199 252.332 673.559 252.325 675.92 252.314C699.684 252.209 699.684 252.209 711.402 254.526C712.84 254.807 712.84 254.807 714.307 255.095C742.721 260.891 766.225 272.576 787.402 292.526C788.139 293.187 788.876 293.848 789.636 294.529C803.378 307.37 812.623 324.853 818.714 342.463C818.945 343.117 819.175 343.771 819.413 344.445C824.855 361.191 824.834 378.003 824.79 395.414C824.794 398.097 824.799 400.779 824.806 403.462C824.819 409.954 824.816 416.446 824.808 422.938C824.801 428.221 824.8 433.505 824.803 438.788C824.804 439.543 824.804 440.299 824.805 441.078C824.805 442.614 824.806 444.149 824.807 445.685C824.816 460.044 824.806 474.402 824.79 488.761C824.777 501.043 824.779 513.326 824.793 525.609C824.809 539.919 824.815 554.229 824.806 568.539C824.805 570.069 824.804 571.6 824.803 573.13C824.803 573.882 824.802 574.635 824.802 575.41C824.799 580.678 824.803 585.945 824.811 591.213C824.819 597.646 824.817 604.078 824.801 610.511C824.793 613.784 824.791 617.057 824.8 620.33C824.878 654.062 818.994 687.442 795.031 712.986C773.927 733.369 746.678 743.529 717.464 743.901C716.7 743.915 715.937 743.929 715.15 743.943C712.205 743.917 709.953 743.859 707.398 742.315C705.983 739.774 705.934 738.407 706.402 735.526C708.054 732.791 708.054 732.791 710.339 729.776C719.525 717.117 725.807 703.431 730.402 688.526C730.792 687.282 731.183 686.038 731.585 684.756C736.233 668.771 736.788 652.388 736.714 635.838C736.712 634.966 736.71 634.094 736.708 633.196C736.559 595.545 728.856 557.977 701.909 529.932C688.916 517.44 673.703 510.699 656.464 506.088C632.669 499.713 612.002 486.825 599.503 465.248C590.375 448.128 589.245 431.174 589.288 412.142C589.288 410.397 589.288 408.652 589.288 406.906C589.287 402.194 589.293 397.482 589.3 392.77C589.307 387.836 589.307 382.902 589.308 377.968C589.311 368.636 589.32 359.304 589.33 349.973C589.341 339.344 589.346 328.715 589.351 318.086C589.362 296.233 589.379 274.379 589.402 252.526Z" fill="#FCFCFC"/>
<path d="M431.39 258.225C432.215 258.221 433.04 258.216 433.89 258.212C435.619 258.206 437.347 258.206 439.076 258.21C441.724 258.213 444.372 258.19 447.021 258.164C448.706 258.162 450.392 258.161 452.077 258.162C452.868 258.153 453.659 258.144 454.473 258.135C459.83 258.18 459.83 258.18 462.109 259.558C464.127 262.63 463.814 265.821 463.783 269.376C463.787 270.185 463.792 270.993 463.797 271.826C463.809 274.544 463.799 277.261 463.79 279.979C463.794 281.923 463.799 283.868 463.806 285.813C463.819 291.102 463.814 296.391 463.805 301.68C463.797 307.209 463.804 312.738 463.809 318.267C463.814 327.553 463.807 336.84 463.793 346.127C463.776 356.87 463.782 367.614 463.798 378.357C463.812 387.572 463.814 396.787 463.806 406.003C463.801 411.51 463.801 417.018 463.811 422.526C463.819 427.704 463.813 432.882 463.796 438.061C463.792 439.963 463.793 441.866 463.8 443.769C463.808 446.362 463.798 448.955 463.783 451.548C463.789 452.305 463.796 453.061 463.803 453.841C463.767 457.009 463.585 459.199 462.021 461.989C459.773 464.123 458.417 464.093 455.339 464.088C431 463.18 405.34 449.435 388.402 432.526C387.706 431.841 387.009 431.157 386.292 430.451C370.226 413.607 363.902 391.012 363.968 368.248C363.963 366.825 363.958 365.401 363.952 363.977C363.943 361.016 363.946 358.056 363.956 355.095C363.967 351.346 363.947 347.598 363.918 343.848C363.899 340.915 363.9 337.981 363.905 335.048C363.905 333.667 363.9 332.287 363.887 330.907C363.735 311.557 369.572 293.744 383.179 279.67C396.61 266.711 412.299 258.203 431.39 258.225Z" fill="#FCFCFC"/>
<path d="M468.917 609.349C469.669 609.342 470.421 609.335 471.196 609.329C473.681 609.309 476.166 609.297 478.652 609.287C479.505 609.283 480.358 609.279 481.236 609.275C485.756 609.254 490.277 609.24 494.797 609.23C499.439 609.219 504.08 609.185 508.722 609.145C512.314 609.119 515.905 609.111 519.497 609.107C521.206 609.102 522.915 609.091 524.625 609.072C539.04 608.924 551.115 610.647 562.402 620.526C572.334 630.611 573.956 641.645 573.9 655.223C573.889 656.105 573.879 656.987 573.868 657.896C573.839 660.586 573.848 663.275 573.861 665.965C573.844 680.08 572.323 690.971 562.398 701.69C556.209 707.601 548.847 711.8 540.402 713.526C538.311 713.39 536.22 713.248 534.133 713.051C511.063 710.68 511.063 710.68 490.401 719.14C483.672 725.074 477.691 731.855 472.292 739.017C470.318 741.588 468.809 743.344 465.819 744.676C463.402 744.526 463.402 744.526 461.114 742.982C458.926 739.844 458.939 738.031 459.011 734.229C459.03 732.421 459.03 732.421 459.05 730.576C459.084 729.322 459.117 728.068 459.152 726.776C459.17 725.506 459.188 724.236 459.206 722.928C459.254 719.793 459.319 716.66 459.402 713.526C458.805 713.339 458.208 713.153 457.593 712.962C445.902 709.211 436.716 702.324 430.964 691.213C429.087 687.198 428.282 683.514 428.225 679.083C428.205 677.776 428.205 677.776 428.186 676.442C428.178 675.507 428.171 674.571 428.163 673.608C428.155 672.636 428.147 671.664 428.139 670.663C428.125 668.606 428.114 666.549 428.107 664.492C428.095 662.398 428.075 660.305 428.045 658.211C428.002 655.176 427.986 652.143 427.976 649.108C427.95 647.72 427.95 647.72 427.923 646.304C427.958 635.538 432.795 627.636 439.921 619.869C447.725 612.427 458.393 609.389 468.917 609.349Z" fill="#28AFB4"/>
<path d="M673.387 607.088C674.056 607.238 674.726 607.387 675.415 607.542C676.064 610.698 676.112 613.296 675.688 616.485C675.573 617.379 675.457 618.273 675.338 619.194C675.207 620.161 675.076 621.128 674.945 622.095C674.814 623.099 674.683 624.102 674.554 625.105C674.211 627.742 673.863 630.377 673.512 633.013C672.951 637.222 672.397 641.432 671.85 645.643C671.659 647.104 671.463 648.564 671.266 650.024C670.643 654.783 670.22 659.358 670.367 664.157C671.274 664.179 671.274 664.179 672.198 664.201C674.437 664.258 676.676 664.32 678.915 664.388C680.361 664.429 681.807 664.463 683.254 664.498C684.16 664.526 685.067 664.554 686 664.583C686.839 664.605 687.677 664.628 688.541 664.652C690.558 664.883 690.558 664.883 692 666.335C691.749 669.029 690.857 670.976 689.487 673.276C689.115 673.905 688.743 674.535 688.36 675.184C687.955 675.857 687.55 676.529 687.133 677.222C686.711 677.932 686.289 678.641 685.855 679.371C682.7 684.658 679.485 689.907 676.248 695.142C672.962 700.459 669.719 705.803 666.492 711.156C666.235 711.581 665.978 712.007 665.713 712.446C662.853 717.187 660.008 721.936 657.188 726.702C656.941 727.119 656.694 727.536 656.439 727.966C655.267 729.944 654.097 731.924 652.932 733.907C652.517 734.609 652.101 735.312 651.673 736.036C651.313 736.647 650.953 737.259 650.582 737.89C647.277 743.042 647.277 743.042 644.363 744C642.245 744 642.245 744 641.028 743.112C639.432 740.937 640.081 739.038 640.392 736.453C641.301 730.667 642.451 724.928 643.597 719.185C643.854 717.886 644.11 716.587 644.366 715.288C644.492 714.651 644.617 714.014 644.747 713.357C645.24 710.854 645.731 708.35 646.222 705.847C646.557 704.155 646.898 702.466 647.24 700.777C648.237 695.766 649.008 691.054 648.735 685.933C647.829 685.911 647.829 685.911 646.904 685.889C644.665 685.832 642.427 685.769 640.188 685.702C638.742 685.661 637.295 685.626 635.848 685.592C634.942 685.564 634.036 685.536 633.102 685.507C632.264 685.484 631.425 685.462 630.562 685.438C628.545 685.207 628.545 685.207 627.102 683.755C626.675 680.593 627.624 678.816 629.246 676.148C629.711 675.372 630.176 674.597 630.655 673.798C630.905 673.388 631.156 672.979 631.414 672.557C632.48 670.813 633.529 669.059 634.579 667.306C635.124 666.396 635.67 665.487 636.217 664.579C638.924 660.076 641.537 655.521 644.138 650.956C645.032 649.392 645.925 647.828 646.82 646.264C647.475 645.117 647.475 645.117 648.143 643.947C651.504 638.081 654.9 632.235 658.3 626.391C659.603 624.147 660.897 621.898 662.191 619.648C663.038 618.183 663.886 616.718 664.734 615.254C665.124 614.571 665.514 613.889 665.916 613.186C666.28 612.56 666.644 611.935 667.018 611.29C667.336 610.739 667.653 610.189 667.979 609.622C669.596 607.307 670.597 606.757 673.387 607.088Z" fill="#FAFBFB"/>
<path d="M733.222 354.272C741.334 358.938 744.904 365.054 748.714 373.401C750.839 383.059 749.108 390.881 744.402 399.526C739.541 406.302 732.707 411.141 724.402 412.526C714.703 413.596 707.469 412.138 699.402 406.526C692.685 400.643 688.872 394.892 688.093 386.006C687.718 374.609 689.855 367.564 697.609 359.248C707.185 350.047 721.342 348.682 733.222 354.272Z" fill="#28AEB4"/>
<path d="M742.402 363.526C746.074 366.606 746.97 368.774 747.402 373.526C746.742 372.206 746.082 370.886 745.402 369.526C744.742 369.526 744.082 369.526 743.402 369.526C743.072 367.546 742.742 365.566 742.402 363.526Z" fill="#14A3AA"/>
<path d="M210.367 732.378C210.352 730.877 210.352 730.877 210.337 729.346C210.336 727.702 210.336 727.702 210.335 726.025C210.326 724.869 210.318 723.713 210.31 722.522C210.286 718.691 210.277 714.859 210.271 711.027C210.262 708.368 210.253 705.709 210.244 703.049C210.227 697.469 210.22 691.889 210.217 686.309C210.213 679.867 210.183 673.425 210.142 666.983C210.103 660.779 210.092 654.576 210.091 648.372C210.087 645.736 210.075 643.1 210.054 640.463C210.027 636.775 210.032 633.088 210.045 629.399C210.03 628.309 210.015 627.22 210 626.097C210.046 621.257 210.102 617.802 213.031 613.95C218.077 608.952 221.799 608.9 228.547 609.032C233.043 609.449 235.978 610.808 238.992 614.388C240.58 617.093 240.728 618.576 240.741 621.745C240.758 623.261 240.758 623.261 240.776 624.808C240.773 625.91 240.77 627.013 240.767 628.148C240.779 629.897 240.779 629.897 240.792 631.682C240.815 635.542 240.816 639.402 240.815 643.263C240.822 645.944 240.83 648.626 240.838 651.307C240.851 656.931 240.853 662.554 240.847 668.178C240.84 674.67 240.863 681.162 240.9 687.654C240.934 693.908 240.94 700.161 240.936 706.415C240.938 709.072 240.948 711.729 240.965 714.386C240.987 718.103 240.978 721.817 240.96 725.534C240.98 727.18 240.98 727.18 241 728.86C240.947 733.677 240.888 737.217 238.022 741.092C233.39 745.516 228.725 745.004 222.767 744.961C218.304 744.537 216.133 743.344 212.619 740.426C210.521 737.065 210.387 736.228 210.367 732.378Z" fill="#FBFCFC"/>
<path d="M253.378 732.378C253.363 730.877 253.363 730.877 253.348 729.346C253.347 727.702 253.347 727.702 253.345 726.025C253.337 724.869 253.328 723.713 253.32 722.522C253.295 718.691 253.286 714.859 253.279 711.027C253.27 708.368 253.261 705.709 253.251 703.049C253.234 697.469 253.227 691.889 253.224 686.309C253.22 679.867 253.189 673.425 253.147 666.983C253.107 660.779 253.095 654.576 253.094 648.372C253.09 645.736 253.077 643.1 253.056 640.463C253.028 636.775 253.033 633.088 253.046 629.399C253.031 628.309 253.016 627.22 253 626.097C253.048 621.257 253.105 617.802 256.129 613.95C261.338 608.952 265.18 608.9 272.145 609.032C276.787 609.449 279.816 610.808 282.927 614.388C284.567 617.093 284.719 618.576 284.733 621.745C284.751 623.261 284.751 623.261 284.768 624.808C284.765 625.91 284.762 627.013 284.759 628.148C284.772 629.897 284.772 629.897 284.785 631.682C284.809 635.542 284.81 639.402 284.809 643.263C284.816 645.944 284.824 648.626 284.833 651.307C284.846 656.931 284.848 662.554 284.842 668.178C284.835 674.67 284.859 681.162 284.897 687.654C284.932 693.908 284.939 700.161 284.934 706.415C284.936 709.072 284.946 711.729 284.964 714.386C284.987 718.103 284.977 721.817 284.959 725.534C284.979 727.18 284.979 727.18 285 728.86C284.946 733.677 284.884 737.217 281.926 741.092C277.145 745.516 272.329 745.004 266.179 744.961C261.572 744.537 259.331 743.344 255.703 740.426C253.537 737.065 253.399 736.228 253.378 732.378Z" fill="#FBFCFC"/>
<path d="M297.367 732.378C297.352 730.877 297.352 730.877 297.337 729.346C297.336 727.702 297.336 727.702 297.335 726.025C297.326 724.869 297.318 723.713 297.31 722.522C297.286 718.691 297.277 714.859 297.271 711.027C297.262 708.368 297.253 705.709 297.244 703.049C297.227 697.469 297.22 691.889 297.217 686.309C297.213 679.867 297.183 673.425 297.142 666.983C297.103 660.779 297.092 654.576 297.091 648.372C297.087 645.736 297.075 643.1 297.054 640.463C297.027 636.775 297.032 633.088 297.045 629.399C297.03 628.309 297.015 627.22 297 626.097C297.046 621.257 297.102 617.802 300.031 613.95C305.077 608.952 308.799 608.9 315.547 609.032C320.043 609.449 322.978 610.808 325.992 614.388C327.58 617.093 327.728 618.576 327.741 621.745C327.758 623.261 327.758 623.261 327.776 624.808C327.773 625.91 327.77 627.013 327.767 628.148C327.779 629.897 327.779 629.897 327.792 631.682C327.815 635.542 327.816 639.402 327.815 643.263C327.822 645.944 327.83 648.626 327.838 651.307C327.851 656.931 327.853 662.554 327.847 668.178C327.84 674.67 327.863 681.162 327.9 687.654C327.934 693.908 327.94 700.161 327.936 706.415C327.938 709.072 327.948 711.729 327.965 714.386C327.987 718.103 327.978 721.817 327.96 725.534C327.98 727.18 327.98 727.18 328 728.86C327.947 733.677 327.888 737.217 325.022 741.092C320.39 745.516 315.725 745.004 309.767 744.961C305.304 744.537 303.133 743.344 299.619 740.426C297.521 737.065 297.387 736.228 297.367 732.378Z" fill="#FBFCFC"/>
<path d="M340.367 732.378C340.352 730.877 340.352 730.877 340.337 729.346C340.336 727.702 340.336 727.702 340.335 726.025C340.326 724.869 340.318 723.713 340.31 722.522C340.286 718.691 340.277 714.859 340.271 711.027C340.262 708.368 340.253 705.709 340.244 703.049C340.227 697.469 340.22 691.889 340.217 686.309C340.213 679.867 340.183 673.425 340.142 666.983C340.103 660.779 340.092 654.576 340.091 648.372C340.087 645.736 340.075 643.1 340.054 640.463C340.027 636.775 340.032 633.088 340.045 629.399C340.03 628.309 340.015 627.22 340 626.097C340.046 621.257 340.102 617.802 343.031 613.95C348.077 608.952 351.799 608.9 358.547 609.032C363.043 609.449 365.978 610.808 368.992 614.388C370.58 617.093 370.728 618.576 370.741 621.745C370.758 623.261 370.758 623.261 370.776 624.808C370.773 625.91 370.77 627.013 370.767 628.148C370.779 629.897 370.779 629.897 370.792 631.682C370.815 635.542 370.816 639.402 370.815 643.263C370.822 645.944 370.83 648.626 370.838 651.307C370.851 656.931 370.853 662.554 370.847 668.178C370.84 674.67 370.863 681.162 370.9 687.654C370.934 693.908 370.94 700.161 370.936 706.415C370.938 709.072 370.948 711.729 370.965 714.386C370.987 718.103 370.978 721.817 370.96 725.534C370.98 727.18 370.98 727.18 371 728.86C370.947 733.677 370.888 737.217 368.022 741.092C363.39 745.516 358.725 745.004 352.767 744.961C348.304 744.537 346.133 743.344 342.619 740.426C340.521 737.065 340.387 736.228 340.367 732.378Z" fill="#FBFCFC"/>
</svg>
